<?xml version="1.0" encoding="UTF-8" standalone="no"?>
<!-- Created with Inkscape (http://www.inkscape.org/) -->

<svg
   version="1.1"
   id="svg2"
   width="1408.08"
   height="1408.0933"
   viewBox="0 0 1408.08 1408.0933"
   sodipodi:docname="OACT-Logo.eps"
   xmlns:inkscape="http://www.inkscape.org/namespaces/inkscape"
   xmlns:sodipodi="http://sodipodi.sourceforge.net/DTD/sodipodi-0.dtd"
   xmlns="http://www.w3.org/2000/svg"
   xmlns:svg="http://www.w3.org/2000/svg">
  <defs
     id="defs6">
    <linearGradient
       x1="528.03101"
       y1="406.93399"
       x2="528.03101"
       y2="999.84698"
       gradientUnits="userSpaceOnUse"
       gradientTransform="scale(10)"
       spreadMethod="pad"
       id="linearGradient16">
      <stop
         style="stop-opacity:1;stop-color:#1671b9"
         offset="0"
         id="stop12" />
      <stop
         style="stop-opacity:1;stop-color:#255473"
         offset="1"
         id="stop14" />
    </linearGradient>
    <clipPath
       clipPathUnits="userSpaceOnUse"
       id="clipPath26">
      <path
         d="m 5513.91,5773.72 c 0,129 -104.57,233.59 -233.6,233.59 -129,0 -233.62,-104.59 -233.62,-233.59 0,-129.03 104.62,-233.63 233.62,-233.63 129.03,0 233.6,104.6 233.6,233.63 z m 422.31,-241.6 c 61.25,7.51 121.62,17.16 179.25,31.32 464.22,113.84 681.81,231.65 1077.37,-78.85 395.54,-310.53 437.94,-1401.46 437.94,-1401.46 0,0 -1156.19,-166.41 -1769.34,656.93 -2.94,3.97 -5.88,7.91 -8.82,11.81 -100.4,134.32 -236.4,221.22 -382.9,261.13 l 52.84,346.16 c 142.38,83.4 238.31,237.59 238.31,414.56 0,176.9 -95.93,331.12 -238.31,414.5 L 5280.31,7776 5038.06,6188.22 c -142.4,-83.38 -238.28,-237.6 -238.28,-414.5 0,-176.97 95.88,-331.16 238.28,-414.56 l 52.81,-346.19 c -146.49,-39.91 -282.43,-126.78 -382.87,-261.1 -2.94,-3.9 -5.84,-7.84 -8.81,-11.81 -613.13,-823.34 -1769.35,-656.93 -1769.35,-656.93 0,0 42.41,1090.93 437.97,1401.46 395.53,310.5 613.13,192.69 1077.38,78.85 57.59,-14.16 117.97,-23.78 179.18,-31.28 -363.81,400 -1199.59,379.18 -1853.21,358.34 -251,-8 -475.13,-16 -635.35,-0.16 C 1426.31,5960.41 892,6775.12 892,6775.12 c 640.84,-129.93 1063.87,-7.71 1463.81,114.54 381.75,116.71 742.47,233.4 1251.53,130.75 421.13,-84.94 743.6,-194.22 978.38,-385.57 -39.85,118.97 -76.16,248.53 -105.91,393.22 -180.5,877 91.03,1709.1 406.35,2173.35 315.34,464.22 394.15,797.06 394.15,797.06 0,0 78.85,-332.84 394.16,-797.06 315.31,-464.25 586.87,-1296.35 406.37,-2173.35 -29.78,-144.69 -66.09,-274.28 -105.93,-393.25 234.78,191.35 557.21,300.63 978.4,385.6 509.03,102.65 869.75,-14.04 1251.5,-130.75 399.94,-122.22 822.94,-244.47 1463.81,-114.54 0,0 -534.34,-814.71 -1243.81,-884.78 -160.22,-15.84 -384.37,-7.84 -635.34,0.16 -653.66,20.81 -1489.44,41.66 -1853.25,-358.38 z"
         clip-rule="evenodd"
         id="path24" />
    </clipPath>
    <linearGradient
       x1="528.03101"
       y1="406.93399"
       x2="528.03101"
       y2="999.84698"
       gradientUnits="userSpaceOnUse"
       gradientTransform="scale(10)"
       spreadMethod="pad"
       id="linearGradient32">
      <stop
         style="stop-opacity:1;stop-color:#1e6192"
         offset="0"
         id="stop28" />
      <stop
         style="stop-opacity:1;stop-color:#294b63"
         offset="1"
         id="stop30" />
    </linearGradient>
    <linearGradient
       x1="528.03101"
       y1="406.93399"
       x2="528.03101"
       y2="999.84698"
       gradientUnits="userSpaceOnUse"
       gradientTransform="scale(10)"
       spreadMethod="pad"
       id="linearGradient40">
      <stop
         style="stop-opacity:1;stop-color:#1e6192"
         offset="0"
         id="stop36" />
      <stop
         style="stop-opacity:1;stop-color:#294b63"
         offset="1"
         id="stop38" />
    </linearGradient>
    <linearGradient
       x1="528.03101"
       y1="406.93399"
       x2="528.03101"
       y2="999.84698"
       gradientUnits="userSpaceOnUse"
       gradientTransform="scale(10)"
       spreadMethod="pad"
       id="linearGradient48">
      <stop
         style="stop-opacity:1;stop-color:#1e6192"
         offset="0"
         id="stop44" />
      <stop
         style="stop-opacity:1;stop-color:#294b63"
         offset="1"
         id="stop46" />
    </linearGradient>
    <linearGradient
       x1="528.03101"
       y1="406.93399"
       x2="528.03101"
       y2="999.84698"
       gradientUnits="userSpaceOnUse"
       gradientTransform="scale(10)"
       spreadMethod="pad"
       id="linearGradient56">
      <stop
         style="stop-opacity:1;stop-color:#1e6192"
         offset="0"
         id="stop52" />
      <stop
         style="stop-opacity:1;stop-color:#294b63"
         offset="1"
         id="stop54" />
    </linearGradient>
    <linearGradient
       x1="528.03101"
       y1="406.93399"
       x2="528.03101"
       y2="999.84698"
       gradientUnits="userSpaceOnUse"
       gradientTransform="scale(10)"
       spreadMethod="pad"
       id="linearGradient64">
      <stop
         style="stop-opacity:1;stop-color:#1e6192"
         offset="0"
         id="stop60" />
      <stop
         style="stop-opacity:1;stop-color:#294b63"
         offset="1"
         id="stop62" />
    </linearGradient>
    <linearGradient
       x1="528.03101"
       y1="406.93399"
       x2="528.03101"
       y2="999.84698"
       gradientUnits="userSpaceOnUse"
       gradientTransform="scale(10)"
       spreadMethod="pad"
       id="linearGradient72">
      <stop
         style="stop-opacity:1;stop-color:#1e6192"
         offset="0"
         id="stop68" />
      <stop
         style="stop-opacity:1;stop-color:#294b63"
         offset="1"
         id="stop70" />
    </linearGradient>
    <linearGradient
       x1="528.03101"
       y1="406.93399"
       x2="528.03101"
       y2="999.84698"
       gradientUnits="userSpaceOnUse"
       gradientTransform="scale(10)"
       spreadMethod="pad"
       id="linearGradient80">
      <stop
         style="stop-opacity:1;stop-color:#1e6192"
         offset="0"
         id="stop76" />
      <stop
         style="stop-opacity:1;stop-color:#294b63"
         offset="1"
         id="stop78" />
    </linearGradient>
  </defs>
  <sodipodi:namedview
     id="namedview4"
     pagecolor="#ffffff"
     bordercolor="#000000"
     borderopacity="0.25"
     inkscape:showpageshadow="2"
     inkscape:pageopacity="0.0"
     inkscape:pagecheckerboard="0"
     inkscape:deskcolor="#d1d1d1" />
  <g
     id="g8"
     inkscape:groupmode="layer"
     inkscape:label="ink_ext_XXXXXX"
     transform="matrix(1.3333333,0,0,-1.3333333,0,1408.0933)">
    <g
       id="g10"
       transform="scale(0.1)">
      <path
         d="m 7630.78,4083.13 c 0,0 -38.9,6.68 -106.97,18.4 -33.28,6.03 -73.69,13.41 -120.03,21.84 -45.87,8.94 -97.22,18.41 -152.47,30.54 -55.22,12 -114.53,24.75 -176.19,40.59 -61.65,15.62 -125.99,32.56 -191.15,52.78 -65.1,20.31 -131.56,42.03 -197.22,67.53 -65.56,25.69 -131.56,52.35 -194.47,84.53 -64.19,29.82 -125.06,65.1 -184.16,101.1 -59,36.28 -114.4,75.84 -167.25,116.03 -26.59,19.94 -50.43,42.16 -76.09,61.87 -23.94,21.72 -47.34,42.97 -70.15,63.66 -22.44,22.03 -44.26,43.44 -65.35,64.19 -14.31,14.75 -21.53,21.43 -36.22,35.28 -13.12,12.56 -25.62,23.37 -38.31,33.34 -50.84,40.25 -102.09,69.63 -149.13,89.94 -47.18,20.19 -89.78,32 -125,38.69 -35.09,7.28 -63.34,8.06 -81.96,9.44 -7.44,0.18 -13.5,0.24 -18.13,0.24 -7.12,0 -10.81,-0.12 -10.81,-0.12 l 52.84,346.16 c 142.38,83.4 238.31,237.59 238.31,414.56 0,176.9 -95.93,331.12 -238.31,414.5 L 5280.31,7776 5038.06,6188.22 c -142.4,-83.38 -238.28,-237.6 -238.28,-414.5 0,-176.97 95.88,-331.16 238.28,-414.56 l 52.81,-346.19 c 0,0 -10,-0.03 -28.78,-0.09 -18.62,-1.44 -47.09,-2.32 -82.03,-9.6 -69.84,-13.25 -172.06,-47.5 -273.93,-128.78 -25.51,-19.91 -49.97,-43.66 -74.5,-68.63 l -8.29,-8.4 c 0.1,0.09 0.1,0.15 0.1,0.15 0,0 -0.13,-0.15 -0.28,-0.34 -0.13,-0.16 -0.25,-0.31 -0.28,-0.31 0,0 0.34,0.47 1.71,2.28 l -0.53,-0.53 -1.06,-1.03 -2.16,-2.07 -4.22,-4.18 -17.03,-16.97 c -11.46,-11.41 -23.09,-23 -34.84,-34.72 -23.59,-22 -45.53,-40.72 -68.66,-61.78 -25.53,-19.63 -49.59,-41.81 -76.09,-61.78 -53.03,-40 -108.22,-79.88 -167.38,-115.94 -59.09,-36.03 -120.12,-71.16 -184.28,-100.91 -62.9,-32.18 -129,-58.62 -194.53,-84.34 -65.75,-25.22 -132.09,-47.28 -197.25,-67.34 -65.12,-20.25 -129.47,-37.13 -191.12,-52.72 -61.63,-15.91 -120.94,-28.63 -176.16,-40.63 -55.25,-12.18 -106.56,-21.68 -152.44,-30.65 -46.34,-8.5 -86.75,-15.88 -120,-21.97 -68.09,-11.82 -107,-18.56 -107,-18.56 0,0 42.41,1090.93 437.97,1401.46 188.88,148.28 337.19,198.88 491.16,198.88 168.47,0 343.66,-60.56 586.22,-120.03 57.59,-14.16 117.97,-23.78 179.18,-31.28 0,0 -8.9,14.03 -25.56,40.31 -4.31,6.44 -9.15,13.62 -14.47,21.53 -6.12,7.56 -12.84,15.84 -20.09,24.78 -7.53,9.09 -15.59,18.84 -24.22,29.28 -9.12,9.81 -19.28,19.28 -29.94,29.94 -42.22,43.06 -100.75,87.66 -172.78,131.69 -72.03,44.34 -158.78,83.75 -255.78,118.4 -97.09,34.35 -204.59,62.85 -318.87,84.79 -114.32,21.74 -235.28,37.62 -359.94,47.34 -62.28,5.44 -125.56,8.62 -189.41,11.12 -61.53,2.5 -123.65,4.25 -186,4.25 -2.28,0 -4.59,-0.03 -6.87,-0.03 -18.88,0.22 -37.75,0.31 -56.63,0.31 -110.69,0 -221.81,-3.34 -331.72,-5.74 -128.56,-3.88 -255.59,-8.54 -374.9,-8.69 -29.28,0.56 -58.72,0.9 -86.25,2.65 l -10.5,0.32 -5.25,0.15 -1.32,0.03 c -1.03,0.13 -1.46,0.16 -1.49,0.16 -0.1,0 1.4,-0.16 2.9,-0.34 1.53,-0.22 3.09,-0.38 3.03,-0.38 0,0 -0.06,0 -0.15,0 l -2.97,0.28 -23.53,2.1 -23.47,2.09 c -7.53,0.72 -16.56,1.28 -21.5,2.31 -44.38,5.35 -99.44,17.28 -149.72,30.22 -101.53,29.09 -200.38,69.31 -291.56,117.53 -91.54,47.57 -176.85,100.19 -253.79,153.32 -154.43,105.9 -278.25,209.4 -364.53,283.4 -42.809,37.38 -77.43,66.72 -99.93,87.78 -22.691,20.72 -34.91,31.85 -35.16,32.06 v -0.03 c 0,0.03 0,0.03 0,0.03 194.69,-39.46 369.25,-55.68 529.19,-55.68 366.56,0 656.15,85.12 934.62,170.22 278.41,85.12 545.72,170.25 867.44,170.25 119.44,0 246.28,-11.72 384.09,-39.5 421.13,-84.94 743.6,-194.22 978.38,-385.57 0,0 -7.75,41.25 -21.35,113.47 -6.28,35.97 -13.9,79.66 -22.62,129.72 -7.94,49.63 -16.66,107.59 -24.28,167.06 -3.31,31.22 -6.75,63.75 -10.31,97.41 -2,16.81 -4,33.91 -6.07,51.25 -1.9,17.25 -2.4,34.34 -3.68,51.84 -2.25,34.85 -4.53,70.63 -6.88,107.19 -0.78,36.91 -1.59,74.63 -2.41,113 -1.53,38.28 -0.93,77.25 0.32,116.69 1.62,39.41 0.22,79.28 3.78,119.37 2.53,40.13 5.09,80.53 7.66,121.1 4.31,40.44 8.65,81.03 12.96,121.62 3.47,40.69 11.19,80.85 16.5,121.16 5.29,40.37 12.6,80.22 20.16,119.72 13.59,79.31 31.91,156.47 49.59,231.15 9.63,37.22 19.07,73.82 28.32,109.63 10.43,35.56 20.65,70.31 30.59,104.19 9.59,34.06 22.41,65.9 32.28,97.75 9.75,31.93 20.59,62.25 31.72,91.09 21.06,58.25 42.56,110.84 61.66,157.75 19.43,46.69 38.37,86.56 52.72,120.31 31.93,65.53 49.78,104.1 49.78,104.1 -245.13,-360.88 -463.79,-944.03 -464.19,-1597.79 0.4,653.76 219.06,1236.91 464.19,1597.79 315.34,464.22 394.15,797.06 394.15,797.06 0,0 78.85,-332.84 394.16,-797.06 245.12,-360.88 463.78,-944.03 464.22,-1597.79 -0.44,653.76 -219.1,1236.91 -464.22,1597.79 0,0 17.75,-38.35 50.03,-104.35 14.37,-33.78 33.16,-73.37 52.59,-120 19.16,-46.87 40.63,-99.5 61.69,-157.75 11.16,-28.84 22.03,-59.15 31.75,-91.09 9.81,-31.88 22.72,-63.69 32.28,-97.75 9.94,-33.85 20.19,-68.63 30.63,-104.19 9.25,-35.81 18.68,-72.41 28.28,-109.62 17.56,-74.75 36.06,-151.85 49.53,-231.19 7.59,-39.53 14.81,-79.38 20.06,-119.75 5.31,-40.31 13.1,-80.47 16.47,-121.19 4.31,-40.59 8.63,-81.15 12.94,-121.59 2.53,-40.6 5.06,-81 7.59,-121.1 1.63,-20.06 2.5,-40.03 2.41,-59.97 0.44,-19.9 0.87,-39.71 1.31,-59.43 0.47,-19.72 0.91,-39.32 1.38,-58.78 0.06,-19.44 -0.78,-38.72 -1.1,-57.91 -0.81,-38.34 -1.65,-76.09 -2.44,-113.03 -2.37,-36.94 -4.71,-73.06 -7,-108.22 -1.31,-17.59 -1.84,-35.06 -3.75,-52.09 -2.03,-17 -4.37,-33.72 -5.93,-50.32 -3.47,-33.15 -6.81,-65.21 -10.03,-95.97 -15.91,-123.09 -33.79,-225.75 -46.97,-297.81 -13.56,-72.22 -21.28,-113.5 -21.28,-113.5 234.78,191.35 557.21,300.63 978.4,385.6 137.75,27.78 264.66,39.5 384.06,39.5 321.75,0 589,-85.13 867.44,-170.25 278.44,-85.1 568.1,-170.22 934.6,-170.22 159.97,0 334.53,16.22 529.21,55.68 0,0 -12.21,-11.15 -35.12,-32.09 -22.44,-21.09 -57.03,-50.47 -99.81,-87.87 -86.19,-74.07 -209.91,-177.69 -364.35,-283.66 -76.97,-53.19 -162.28,-105.81 -253.81,-153.41 -91.25,-48.22 -190.12,-88.4 -291.72,-117.53 -51.18,-13.06 -102.72,-24.34 -154.72,-30.94 -26.15,-2.4 -51.75,-5.31 -78.43,-5.87 -14.54,-0.25 -31.57,-1.91 -44.35,-1.91 -0.56,0 -1.12,0 -1.69,0 l -41.31,-0.68 c -119.06,0.5 -246.31,4.06 -374.78,8.97 -109.72,3.31 -220.69,5.96 -331.19,5.96 -19.06,0 -38.12,-0.06 -57.15,-0.25 -1.72,0 -3.44,0 -5.19,0 -62.91,0 -125.59,-1.4 -187.69,-4.12 -63.84,-2.63 -127.12,-5.5 -189.4,-11 -124.69,-9.75 -245.69,-25.56 -360.04,-47.31 -114.28,-21.97 -221.81,-50.47 -318.9,-84.82 -97,-34.75 -183.75,-74.18 -255.81,-118.56 -72,-44.09 -130.57,-88.75 -172.75,-131.87 -10.63,-10.63 -20.88,-20.19 -29.88,-29.94 -8.47,-10.31 -16.41,-19.97 -23.81,-28.97 -7.19,-8.91 -13.88,-17.12 -19.97,-24.69 -5.47,-8.06 -10.41,-15.4 -14.88,-21.97 -17.34,-26.34 -25.65,-40.47 -25.65,-40.47 61.25,7.51 121.62,17.16 179.25,31.32 242.5,59.47 417.75,120.03 586.19,120.03 153.97,0 302.25,-50.6 491.18,-198.88 395.54,-310.53 437.94,-1401.46 437.94,-1401.46 z M 5278.5,5636.47 c -26.66,0.37 -52.47,4.47 -79,12.9 -13.03,4.91 -27,9.82 -39.41,17.1 -13.12,6.59 -25.06,14.84 -36.81,23.37 -11.31,8.82 -21.87,18.22 -31.28,27.66 -9.03,9.81 -17.84,18.59 -24,26.69 -6.66,7.87 -11.84,16.72 -15.41,21.56 -3.84,5.19 -5.9,7.97 -5.9,7.97 0,129 104.62,233.59 233.62,233.59 129.03,0 233.6,-104.59 233.6,-233.59 0,0 -2.07,-2.81 -5.94,-8.06 -3.63,-5.13 -8.72,-12.44 -15.44,-20.82 -6.19,-8.5 -15.12,-17.71 -24.12,-27.28 -9.44,-9.43 -20,-18.84 -31.35,-27.59 -11.75,-8.53 -23.65,-16.75 -36.78,-23.31 -12.37,-7.25 -26.31,-12.19 -39.31,-17.1 -13.44,-4.44 -27,-7.15 -40.22,-9.78 -6.56,-0.78 -13.5,-1.94 -17.09,-1.94 -0.13,0 -0.28,0.04 -0.41,0.04 l -3.22,-0.51 -7.44,-0.37 -8.56,-0.34 -4.31,-0.16 -1.22,-0.03"
         style="fill:url(#linearGradient16);fill-opacity:1;fill-rule:evenodd;stroke:none"
         id="path18" />
      <g
         id="g20">
        <g
           id="g22"
           clip-path="url(#clipPath26)">
          <path
             d="m 5280.31,5540.09 c -129,0 -233.62,104.6 -233.62,233.63 0,0 2.06,-2.78 5.9,-7.97 3.57,-4.84 8.75,-13.69 15.41,-21.56 6.16,-8.1 14.97,-16.88 24,-26.69 9.41,-9.44 19.97,-18.84 31.28,-27.66 11.75,-8.53 23.69,-16.78 36.81,-23.37 12.41,-7.28 26.38,-12.19 39.41,-17.1 26.53,-8.43 52.34,-12.53 79,-12.9 l 1.22,0.03 4.31,0.16 8.56,0.34 7.44,0.37 3.22,0.51 c 0.13,0 0.28,-0.04 0.41,-0.04 3.59,0 10.53,1.16 17.09,1.94 13.22,2.63 26.78,5.34 40.22,9.78 13,4.91 26.94,9.85 39.31,17.1 13.13,6.56 25.03,14.78 36.78,23.31 11.35,8.75 21.91,18.16 31.35,27.59 9,9.57 17.93,18.78 24.12,27.28 6.72,8.38 11.81,15.69 15.44,20.82 3.87,5.25 5.94,8.06 5.94,8.06 0,-129.03 -104.57,-233.63 -233.6,-233.63"
             style="fill:url(#linearGradient32);fill-opacity:1;fill-rule:evenodd;stroke:none"
             id="path34" />
          <path
             d="m 4585.72,6634.84 c -39.85,118.97 -76.16,248.53 -105.91,393.22 -40.22,195.25 -57.97,388.31 -57.84,575.56 0.4,653.76 219.06,1236.91 464.19,1597.79 0,0 -17.85,-38.57 -49.78,-104.1 -14.35,-33.75 -33.29,-73.62 -52.72,-120.31 -19.1,-46.91 -40.6,-99.5 -61.66,-157.75 -11.13,-28.84 -21.97,-59.16 -31.72,-91.09 -9.87,-31.85 -22.69,-63.69 -32.28,-97.75 -9.94,-33.88 -20.16,-68.63 -30.59,-104.19 -9.25,-35.81 -18.69,-72.41 -28.32,-109.63 -17.68,-74.68 -36,-151.84 -49.59,-231.15 -7.56,-39.5 -14.87,-79.35 -20.16,-119.72 -5.31,-40.31 -13.03,-80.47 -16.5,-121.16 -4.31,-40.59 -8.65,-81.18 -12.96,-121.62 -2.57,-40.57 -5.13,-80.97 -7.66,-121.1 -3.56,-40.09 -2.16,-79.96 -3.78,-119.37 -1.25,-39.44 -1.85,-78.41 -0.32,-116.69 0.82,-38.37 1.63,-76.09 2.41,-113 2.35,-36.56 4.63,-72.34 6.88,-107.19 1.28,-17.5 1.78,-34.59 3.68,-51.84 2.07,-17.34 4.07,-34.44 6.07,-51.25 3.56,-33.66 7,-66.19 10.31,-97.41 7.62,-59.47 16.34,-117.43 24.28,-167.06 8.72,-50.06 16.34,-93.75 22.62,-129.72 13.6,-72.22 21.35,-113.47 21.35,-113.47"
             style="fill:url(#linearGradient40);fill-opacity:1;fill-rule:evenodd;stroke:none"
             id="path42" />
          <path
             d="m 4624.37,5532.16 c -282.84,311 -851.06,367.62 -1397.09,367.62 -156.28,0 -310.69,-4.66 -456.12,-9.28 -145.44,-4.63 -281.91,-9.25 -402.1,-9.25 -87.22,0 -165.87,2.44 -233.25,9.09 C 1429.25,5960.12 896.441,6768.37 892,6775.09 v 0.03 c 0.25,-0.21 12.469,-11.34 35.16,-32.06 22.5,-21.06 57.121,-50.4 99.93,-87.78 86.28,-74 210.1,-177.5 364.53,-283.4 76.94,-53.13 162.25,-105.75 253.79,-153.32 91.18,-48.22 190.03,-88.44 291.56,-117.53 50.28,-12.94 105.34,-24.87 149.72,-30.22 4.94,-1.03 13.97,-1.59 21.5,-2.31 l 23.47,-2.09 23.53,-2.1 2.97,-0.28 c 0.09,0 0.15,0 0.15,0 0.06,0 -1.5,0.16 -3.03,0.38 -1.5,0.18 -3,0.34 -2.9,0.34 0.03,0 0.46,-0.03 1.49,-0.16 l 1.32,-0.03 5.25,-0.15 10.5,-0.32 c 27.53,-1.75 56.97,-2.09 86.25,-2.65 119.31,0.15 246.34,4.81 374.9,8.69 109.91,2.4 221.03,5.74 331.72,5.74 18.88,0 37.75,-0.09 56.63,-0.31 2.28,0 4.59,0.03 6.87,0.03 62.35,0 124.47,-1.75 186,-4.25 63.85,-2.5 127.13,-5.68 189.41,-11.12 124.66,-9.72 245.62,-25.6 359.94,-47.34 114.28,-21.94 221.78,-50.44 318.87,-84.79 97,-34.65 183.75,-74.06 255.78,-118.4 72.03,-44.03 130.56,-88.63 172.78,-131.69 10.66,-10.66 20.82,-20.13 29.94,-29.94 8.63,-10.44 16.69,-20.19 24.22,-29.28 7.25,-8.94 13.97,-17.22 20.09,-24.78 5.32,-7.91 10.16,-15.09 14.47,-21.53 16.66,-26.28 25.56,-40.31 25.56,-40.31"
             style="fill:url(#linearGradient48);fill-opacity:1;fill-rule:evenodd;stroke:none"
             id="path50" />
          <path
             d="m 3176.78,4069.34 c -151.12,0 -246.94,13.79 -246.94,13.79 0,0 38.91,6.74 107,18.56 33.25,6.09 73.66,13.47 120,21.97 45.88,8.97 97.19,18.47 152.44,30.65 55.22,12 114.53,24.72 176.16,40.63 61.65,15.59 126,32.47 191.12,52.72 65.16,20.06 131.5,42.12 197.25,67.34 65.53,25.72 131.63,52.16 194.53,84.34 64.16,29.75 125.19,64.88 184.28,100.91 59.16,36.06 114.35,75.94 167.38,115.94 26.5,19.97 50.56,42.15 76.09,61.78 23.13,21.06 45.07,39.78 68.66,61.78 11.75,11.72 23.38,23.31 34.84,34.72 l 17.03,16.97 4.22,4.18 2.16,2.07 1.06,1.03 0.53,0.53 c -1.37,-1.81 -1.71,-2.28 -1.71,-2.28 0.03,0 0.15,0.15 0.28,0.31 0.15,0.19 0.28,0.34 0.28,0.34 0,0 0,-0.06 -0.1,-0.15 l 8.29,8.4 c 24.53,24.97 48.99,48.72 74.5,68.63 101.87,81.28 204.09,115.53 273.93,128.78 34.94,7.28 63.41,8.16 82.03,9.6 18.78,0.06 28.78,0.09 28.78,0.09 -146.49,-39.91 -282.43,-126.78 -382.87,-261.1 -2.94,-3.9 -5.84,-7.84 -8.81,-11.81 -436.6,-586.31 -1148.63,-670.72 -1522.41,-670.72"
             style="fill:url(#linearGradient56);fill-opacity:1;fill-rule:evenodd;stroke:none"
             id="path58" />
          <path
             d="m 7383.87,4069.34 c -373.74,0 -1085.78,84.38 -1522.43,670.72 -2.94,3.97 -5.88,7.91 -8.82,11.81 -100.4,134.32 -236.4,221.22 -382.9,261.13 0,0 3.69,0.12 10.81,0.12 4.63,0 10.69,-0.06 18.13,-0.24 18.62,-1.38 46.87,-2.16 81.96,-9.44 35.22,-6.69 77.82,-18.5 125,-38.69 47.04,-20.31 98.29,-49.69 149.13,-89.94 12.69,-9.97 25.19,-20.78 38.31,-33.34 14.69,-13.85 21.91,-20.53 36.22,-35.28 21.09,-20.75 42.91,-42.16 65.35,-64.19 22.81,-20.69 46.21,-41.94 70.15,-63.66 25.66,-19.71 49.5,-41.93 76.09,-61.87 52.85,-40.19 108.25,-79.75 167.25,-116.03 59.1,-36 119.97,-71.28 184.16,-101.1 62.91,-32.18 128.91,-58.84 194.47,-84.53 65.66,-25.5 132.12,-47.22 197.22,-67.53 65.16,-20.22 129.5,-37.16 191.15,-52.78 61.66,-15.84 120.97,-28.59 176.19,-40.59 55.25,-12.13 106.6,-21.6 152.47,-30.54 46.34,-8.43 86.75,-15.81 120.03,-21.84 68.07,-11.72 106.97,-18.4 106.97,-18.4 0,0 -95.84,-13.79 -246.91,-13.79"
             style="fill:url(#linearGradient64);fill-opacity:1;fill-rule:evenodd;stroke:none"
             id="path66" />
          <path
             d="m 5936.22,5532.12 c 0,0 8.31,14.13 25.65,40.47 4.47,6.57 9.41,13.91 14.88,21.97 6.09,7.57 12.78,15.78 19.97,24.69 7.4,9 15.34,18.66 23.81,28.97 9,9.75 19.25,19.31 29.88,29.94 42.18,43.12 100.75,87.78 172.75,131.87 72.06,44.38 158.81,83.81 255.81,118.56 97.09,34.35 204.62,62.85 318.9,84.82 114.35,21.75 235.35,37.56 360.04,47.31 62.28,5.5 125.56,8.37 189.4,11 62.1,2.72 124.78,4.12 187.69,4.12 1.75,0 3.47,0 5.19,0 19.03,0.19 38.09,0.25 57.15,0.25 110.5,0 221.47,-2.65 331.19,-5.96 128.47,-4.91 255.72,-8.47 374.78,-8.97 l 41.31,0.68 c 0.57,0 1.13,0 1.69,0 12.78,0 29.81,1.66 44.35,1.91 26.68,0.56 52.28,3.47 78.43,5.87 52,6.6 103.54,17.88 154.72,30.94 101.6,29.13 200.47,69.31 291.72,117.53 91.53,47.6 176.84,100.22 253.81,153.41 154.44,105.97 278.16,209.59 364.35,283.66 42.78,37.4 77.37,66.78 99.81,87.87 22.91,20.94 35.12,32.09 35.12,32.09 0,0 -534.34,-814.71 -1243.81,-884.78 -67.37,-6.65 -146.03,-9.09 -233.25,-9.09 -120.22,0 -256.62,4.62 -402.09,9.25 -145.38,4.62 -299.88,9.28 -456.1,9.28 -546.09,0 -1114.25,-56.59 -1397.15,-367.66"
             style="fill:url(#linearGradient72);fill-opacity:1;fill-rule:evenodd;stroke:none"
             id="path74" />
          <path
             d="m 5974.91,6634.81 c 0,0 7.72,41.28 21.28,113.5 13.18,72.06 31.06,174.72 46.97,297.81 3.22,30.76 6.56,62.82 10.03,95.97 1.56,16.6 3.9,33.32 5.93,50.32 1.91,17.03 2.44,34.5 3.75,52.09 2.29,35.16 4.63,71.28 7,108.22 0.79,36.94 1.63,74.69 2.44,113.03 0.32,19.19 1.16,38.47 1.1,57.91 -0.47,19.46 -0.91,39.06 -1.38,58.78 -0.44,19.72 -0.87,39.53 -1.31,59.43 0.09,19.94 -0.78,39.91 -2.41,59.97 -2.53,40.1 -5.06,80.5 -7.59,121.1 -4.31,40.44 -8.63,81 -12.94,121.59 -3.37,40.72 -11.16,80.88 -16.47,121.19 -5.25,40.37 -12.47,80.22 -20.06,119.75 -13.47,79.34 -31.97,156.44 -49.53,231.19 -9.6,37.21 -19.03,73.81 -28.28,109.62 -10.44,35.56 -20.69,70.34 -30.63,104.19 -9.56,34.06 -22.47,65.87 -32.28,97.75 -9.72,31.94 -20.59,62.25 -31.75,91.09 -21.06,58.25 -42.53,110.88 -61.69,157.75 -19.43,46.63 -38.22,86.22 -52.59,120 -32.28,66 -50.03,104.35 -50.03,104.35 245.12,-360.88 463.78,-944.03 464.22,-1597.79 0.12,-187.25 -17.66,-380.31 -57.85,-575.56 -29.78,-144.69 -66.09,-274.28 -105.93,-393.25"
             style="fill:url(#linearGradient80);fill-opacity:1;fill-rule:evenodd;stroke:none"
             id="path82" />
        </g>
      </g>
      <path
         d="m 6295.37,1627.06 h -209.18 v -606.62 h -172.44 v 606.62 h -209.19 v 136.75 h 590.81 z m -722.43,-414.28 c 4.06,0 8.15,-0.78 12.25,-2.31 4.06,-1.53 7.97,-4.16 11.72,-7.91 l 68.37,-71.94 c -29.94,-39.12 -67.44,-68.62 -112.5,-88.53 -45.06,-19.87 -98.4,-29.81 -159.94,-29.81 -56.46,0 -107.06,9.59 -151.81,28.81 -44.72,19.22 -82.66,45.75 -113.75,79.6 -31.12,33.84 -55.03,73.97 -71.69,120.4 -16.68,46.44 -25,96.85 -25,151.28 0,55.44 9,106.38 27.03,152.79 18.04,46.43 43.38,86.5 76.04,120.18 32.65,33.66 71.75,59.85 117.34,78.57 45.56,18.68 95.75,28.06 150.5,28.06 27.87,0 54.16,-2.47 78.84,-7.41 24.66,-4.94 47.69,-11.72 69.13,-20.4 21.44,-8.66 41.15,-19.13 59.19,-31.38 18,-12.25 34,-25.53 47.93,-39.81 l -58.15,-78.06 c -3.75,-4.75 -8.16,-9.1 -13.25,-13 -5.13,-3.91 -12.25,-5.88 -21.44,-5.88 -6.13,0 -11.91,1.38 -17.34,4.09 -5.44,2.72 -11.22,6.04 -17.35,9.94 -6.12,3.91 -12.84,8.19 -20.15,12.78 -7.32,4.6 -16,8.82 -26.04,12.75 -10.03,3.88 -21.78,7.22 -35.18,9.94 -13.44,2.72 -29.19,4.09 -47.22,4.09 -28.56,0 -54.66,-5.28 -78.31,-15.81 -23.63,-10.56 -44.04,-25.97 -61.22,-46.19 -17.19,-20.21 -30.44,-45.06 -39.78,-74.5 -9.38,-29.4 -14.04,-63 -14.04,-100.75 0,-38.12 5.16,-71.93 15.57,-101.53 10.34,-29.59 24.47,-54.53 42.34,-74.75 17.85,-20.25 38.69,-35.65 62.5,-46.18 23.78,-10.54 49.31,-15.82 76.53,-15.82 15.63,0 29.91,0.75 42.85,2.32 12.93,1.5 25,4.09 36.21,7.62 11.26,3.59 21.79,8.34 31.66,14.31 9.84,5.94 19.88,13.53 30.1,22.72 4.09,3.38 8.5,6.19 13.24,8.41 4.79,2.19 9.72,3.31 14.82,3.31 z m -829.63,91.84 -68.87,203.57 c -5.1,12.93 -10.53,28.12 -16.32,45.65 -5.78,17.53 -11.56,36.5 -17.34,56.91 -5.12,-20.75 -10.56,-40 -16.34,-57.66 -5.78,-17.68 -11.22,-33 -16.32,-45.93 l -68.37,-202.54 z m 274,-284.18 h -133.68 c -14.97,0 -27.04,3.47 -36.22,10.43 -9.19,6.97 -16.16,15.91 -20.91,26.79 l -43.91,129.59 h -282.65 l -43.88,-129.59 c -3.72,-9.5 -10.44,-18.1 -20.15,-25.75 -9.69,-7.66 -21.66,-11.47 -35.97,-11.47 H 4265.25 L 4553,1763.81 h 176.53 l 287.78,-743.37"
         style="fill:#ef6e16;fill-opacity:1;fill-rule:nonzero;stroke:none"
         id="path84" />
      <path
         d="M 3761.78,1353.72 H 852.219 v 87.59 H 3761.78 v -87.59"
         style="fill:#ef6e16;fill-opacity:1;fill-rule:nonzero;stroke:none"
         id="path86" />
      <path
         d="M 9708.41,1353.72 H 6798.87 v 87.59 h 2909.54 v -87.59"
         style="fill:#ef6e16;fill-opacity:1;fill-rule:nonzero;stroke:none"
         id="path88" />
      <path
         d="m 10189.4,2700.81 h 364.2 v -432.47 c -52.5,-38.43 -108.4,-66.31 -167.7,-83.65 -59.3,-17.35 -121.3,-26.03 -186,-26.03 -84.4,0 -161.1,13.25 -230.27,39.75 -69.16,26.46 -128.32,63.03 -177.54,109.68 -49.22,46.63 -87.18,101.94 -113.9,165.94 -26.72,64 -40.1,133.47 -40.1,208.5 0,76.41 12.66,146.59 37.97,210.59 25.31,63.97 61.53,119.16 108.63,165.6 47.12,46.4 104.09,82.5 170.87,108.28 66.84,25.78 141.44,38.69 223.94,38.69 42.7,0 82.8,-3.53 120.3,-10.57 37.5,-7.03 72,-16.65 103.7,-28.81 31.6,-12.22 60.6,-26.75 86.8,-43.59 26.3,-16.91 49.7,-35.19 70.3,-54.85 l -68.9,-104.81 c -10.8,-16.4 -24.7,-26.47 -41.8,-30.22 -17.1,-3.75 -35.5,0.47 -55.2,12.66 -18.8,11.25 -36.4,20.97 -53.1,29.19 -16.6,8.18 -33.6,14.87 -51,20.03 -17.3,5.15 -35.6,8.9 -54.8,11.25 -19.2,2.34 -40.8,3.53 -64.7,3.53 -44.5,0 -84.6,-7.88 -120.3,-23.56 -35.6,-15.72 -65.93,-37.88 -91.02,-66.44 -25.06,-28.63 -44.41,-62.94 -58,-103.03 -13.59,-40.06 -20.41,-84.72 -20.41,-133.94 0,-54.37 7.5,-102.66 22.51,-144.87 14.99,-42.19 36.21,-77.82 63.65,-106.88 27.41,-29.06 60.27,-51.22 98.47,-66.44 38.2,-15.25 80.5,-22.84 126.9,-22.84 28.6,0 54.5,2.78 77.7,8.44 23.2,5.62 45.8,13.09 67.8,22.5 v 155.37 h -101.2 c -15,0 -26.7,4 -35.2,11.97 -8.4,7.97 -12.6,18.03 -12.6,30.22 z m -718.65,493.63 V 2169.91 H 9347 c -18.28,0 -33.66,2.93 -46.06,8.81 -12.44,5.84 -24.72,16.03 -36.91,30.59 l -483.06,611.03 c 1.84,-18.28 3.15,-36 3.84,-53.09 0.72,-17.13 1.06,-33.19 1.06,-48.16 v -549.18 h -209.53 v 1024.53 h 125.16 c 10.31,0 18.97,-0.5 26,-1.41 7.03,-0.94 13.38,-2.72 19,-5.31 5.62,-2.56 11,-6.19 16.16,-10.88 5.15,-4.68 11.03,-11.03 17.59,-18.97 l 487.28,-615.28 c -2.34,19.69 -3.97,38.78 -4.91,57.32 -0.93,18.5 -1.4,35.97 -1.4,52.37 v 542.16 z M 8349.94,2169.91 h -239.1 v 1024.53 h 239.1 z m -858.53,542.84 c 32.34,0 59.87,4.09 82.59,12.31 22.75,8.19 41.37,19.56 55.91,34.1 14.53,14.53 25.09,31.53 31.65,51 6.57,19.43 9.85,40.4 9.85,62.9 0,45.03 -14.66,80.19 -43.97,105.5 -29.28,25.32 -74.63,37.97 -136.03,37.97 h -95.66 v -303.78 z m 504.84,-542.84 h -215.16 c -39.84,0 -68.43,15.03 -85.78,45.03 l -170.15,297.43 c -8,12.66 -16.88,21.88 -26.72,27.75 -9.85,5.88 -23.94,8.79 -42.22,8.79 h -60.47 v -379 h -237.66 v 1024.53 h 333.32 c 74.06,0 137.21,-7.66 189.5,-22.88 52.25,-15.25 94.9,-36.44 127.97,-63.62 33.03,-27.19 57.06,-59.32 72.06,-96.35 15,-37.03 22.5,-77.34 22.5,-120.93 0,-33.29 -4.47,-64.69 -13.35,-94.22 -8.9,-29.53 -22.06,-56.85 -39.37,-81.91 -17.38,-25.09 -38.81,-47.47 -64.34,-67.19 -25.57,-19.65 -54.97,-35.84 -88.26,-48.5 15.47,-7.97 30,-17.93 43.6,-29.87 13.59,-11.97 25.78,-26.13 36.56,-42.53 z m -1433.03,841.68 v -239.06 h 322.06 v -175.78 h -322.06 v -244 h 420.5 v -182.84 h -659.56 v 1024.53 h 659.56 v -182.85 z m -833.94,0 v -239.06 h 322.03 v -175.78 h -322.03 v -244 h 420.5 v -182.84 h -659.59 v 1024.53 h 659.59 v -182.85 z m -387.44,-5.62 h -288.28 v -836.06 h -237.68 v 836.06 h -288.29 v 188.47 h 814.25 z m -962.62,188.47 V 2169.91 h -123.75 c -18.28,0 -33.63,2.93 -46.06,8.81 -12.41,5.84 -24.72,16.03 -36.91,30.59 l -483.06,611.03 c 1.87,-18.28 3.15,-36 3.87,-53.09 0.69,-17.13 1.03,-33.19 1.03,-48.16 v -549.18 h -209.53 v 1024.53 h 125.16 c 10.31,0 19,-0.5 26.03,-1.41 7.03,-0.94 13.34,-2.72 18.97,-5.31 5.62,-2.56 11,-6.19 16.19,-10.88 5.15,-4.68 11,-11.03 17.56,-18.97 l 487.31,-615.28 c -2.37,19.69 -4,38.78 -4.94,57.32 -0.93,18.5 -1.4,35.97 -1.4,52.37 v 542.16 z M 2889.94,3011.59 V 2772.53 H 3212 v -175.78 h -322.06 v -244 h 420.5 v -182.84 h -659.56 v 1024.53 h 659.56 v -182.85 z m -465.47,-841.68 h -239.09 v 1024.53 h 239.09 z m -858.53,542.84 c 32.34,0 59.87,4.09 82.62,12.31 22.72,8.19 41.35,19.56 55.88,34.1 14.53,14.53 25.09,31.53 31.65,51 6.57,19.43 9.85,40.4 9.85,62.9 0,45.03 -14.66,80.19 -43.94,105.5 -29.31,25.32 -74.66,37.97 -136.06,37.97 h -95.63 v -303.78 z m 504.84,-542.84 h -215.15 c -39.85,0 -68.44,15.03 -85.79,45.03 l -170.15,297.43 c -8,12.66 -16.88,21.88 -26.72,27.75 -9.85,5.88 -23.91,8.79 -42.19,8.79 h -60.47 v -379 h -237.68 v 1024.53 h 333.31 c 74.06,0 137.22,-7.66 189.5,-22.88 52.25,-15.25 94.9,-36.44 127.97,-63.62 33.03,-27.19 57.06,-59.32 72.06,-96.35 15,-37.03 22.5,-77.34 22.5,-120.93 0,-33.29 -4.44,-64.69 -13.35,-94.22 -8.9,-29.53 -22.06,-56.85 -39.37,-81.91 -17.34,-25.09 -38.81,-47.47 -64.34,-67.19 -25.57,-19.65 -54.97,-35.84 -88.25,-48.5 15.47,-7.97 30,-17.93 43.59,-29.87 13.59,-11.97 25.78,-26.13 36.56,-42.53 z M 821.281,2682.53 c 0,50.63 -6.59,96.19 -19.691,136.75 -13.121,40.56 -32,74.88 -56.59,103 -24.629,28.13 -54.75,49.72 -90.379,64.72 -35.621,14.97 -76.18,22.5 -121.621,22.5 -45.969,0 -86.84,-7.53 -122.719,-22.5 -35.84,-15 -66.09,-36.59 -90.722,-64.72 -24.59,-28.12 -43.469,-62.44 -56.59,-103 -13.129,-40.56 -19.688,-86.12 -19.688,-136.75 0,-51.09 6.559,-96.94 19.688,-137.47 13.121,-40.56 32,-74.87 56.59,-103 24.632,-28.15 54.882,-49.59 90.722,-64.34 35.879,-14.78 76.75,-22.16 122.719,-22.16 45.441,0 86,7.38 121.621,22.16 35.629,14.75 65.75,36.19 90.379,64.34 24.59,28.13 43.469,62.44 56.59,103 13.101,40.53 19.691,86.38 19.691,137.47 z m 243.279,0 c 0,-74.06 -12.75,-143 -38.31,-206.75 C 1000.69,2412.03 964.719,2356.62 918.309,2309.5 871.91,2262.37 816,2225.47 750.621,2198.75 685.219,2172.03 612.691,2158.66 533,2158.66 c -79.719,0 -152.379,13.37 -218,40.09 -65.629,26.72 -121.75,63.62 -168.41,110.75 C 99.9414,2356.62 63.8711,2412.03 38.3086,2475.78 12.75,2539.53 0,2608.47 0,2682.53 c 0,74.06 12.75,142.97 38.3086,206.72 25.5625,63.75 61.6328,119.06 108.2814,165.94 46.66,46.87 102.781,83.68 168.41,110.4 65.621,26.72 138.281,40.1 218,40.1 79.691,0 152.219,-13.5 217.621,-40.44 65.379,-26.97 121.289,-63.91 167.688,-110.75 46.41,-46.91 82.381,-102.19 107.941,-165.97 25.56,-63.72 38.31,-132.41 38.31,-206"
         style="fill:#ef6e16;fill-opacity:1;fill-rule:nonzero;stroke:none"
         id="path90" />
    </g>
  </g>
</svg>
